HIERARCHY
ROOT Hips
{
	OFFSET 0.00000 0.00000 0.00000
	CHANNELS 6 Xposition Yposition Zposition Zrotation Yrotation Xrotation 
	JOINT LHipJoint
	{
		OFFSET 0 0 0
		CHANNELS 3 Zrotation Yrotation Xrotation
		JOINT LeftUpLeg
		{
			OFFSET 1.29432 -1.88279 0.59910
			CHANNELS 3 Zrotation Yrotation Xrotation
			JOINT LeftLeg
			{
				OFFSET 2.63039 -7.22694 0.00000
				CHANNELS 3 Zrotation Yrotation Xrotation
				JOINT LeftFoot
				{
					OFFSET 2.70674 -7.43672 0.00000
					CHANNELS 3 Zrotation Yrotation Xrotation
					JOINT LeftToeBase
					{
						OFFSET 0.15066 -0.41394 2.09027
						CHANNELS 3 Zrotation Yrotation Xrotation
						End Site
						{
							OFFSET 0.00000 -0.00000 1.07518
						}
					}
				}
			}
		}
	}
	JOINT RHipJoint
	{
		OFFSET 0 0 0
		CHANNELS 3 Zrotation Yrotation Xrotation
		JOINT RightUpLeg
		{
			OFFSET -1.37068 -1.88279 0.59910
			CHANNELS 3 Zrotation Yrotation Xrotation
			JOINT RightLeg
			{
				OFFSET -2.57023 -7.06166 0.00000
				CHANNELS 3 Zrotation Yrotation Xrotation
				JOINT RightFoot
				{
					OFFSET -2.76461 -7.59570 0.00000
					CHANNELS 3 Zrotation Yrotation Xrotation
					JOINT RightToeBase
					{
						OFFSET -0.24175 -0.64785 2.19719
						CHANNELS 3 Zrotation Yrotation Xrotation
						End Site
						{
							OFFSET -0.00000 -0.00000 1.14803
						}
					}
				}
			}
		}
	}
	JOINT LowerBack
	{
		OFFSET 0 0 0
		CHANNELS 3 Zrotation Yrotation Xrotation
		JOINT Spine
		{
			OFFSET -0.03138 2.03983 -0.23106
			CHANNELS 3 Zrotation Yrotation Xrotation
			JOINT Spine1
			{
				OFFSET -0.00325 2.06238 -0.06878
				CHANNELS 3 Zrotation Yrotation Xrotation
				JOINT Neck
				{
					OFFSET 0 0 0
					CHANNELS 3 Zrotation Yrotation Xrotation
					JOINT Neck1
					{
						OFFSET -0.00002 1.75318 0.18090
						CHANNELS 3 Zrotation Yrotation Xrotation
						JOINT Head
						{
							OFFSET 0.08806 1.75856 -0.25387
							CHANNELS 3 Zrotation Yrotation Xrotation
							End Site
							{
								OFFSET 0.02554 1.78597 -0.10684
							}
						}
					}
				}
				JOINT LeftShoulder
				{
					OFFSET 0 0 0
					CHANNELS 3 Zrotation Yrotation Xrotation
					JOINT LeftArm
					{
						OFFSET 3.09657 1.33597 -0.04414
						CHANNELS 3 Zrotation Yrotation Xrotation
						JOINT LeftForeArm
						{
							OFFSET 5.34298 -0.00000 -0.00000
							CHANNELS 3 Zrotation Yrotation Xrotation
							JOINT LeftHand
							{
								OFFSET 3.67262 -0.00000 -0.00000
								CHANNELS 3 Zrotation Yrotation Xrotation
								JOINT LeftFingerBase
								{
									OFFSET 0 0 0
									CHANNELS 3 Zrotation Yrotation Xrotation
									JOINT LeftHandIndex1
									{
										OFFSET 0.59930 -0.00000 -0.00000
										CHANNELS 3 Zrotation Yrotation Xrotation
										End Site
										{
											OFFSET 0.48317 -0.00000 -0.00000
										}
									}
								}
								JOINT LThumb
								{
									OFFSET 0 0 0
									CHANNELS 3 Zrotation Yrotation Xrotation
									End Site
									{
										OFFSET 0.49055 -0.00000 0.49055
									}
								}
							}
						}
					}
				}
				JOINT RightShoulder
				{
					OFFSET 0 0 0
					CHANNELS 3 Zrotation Yrotation Xrotation
					JOINT RightArm
					{
						OFFSET -3.16460 1.32273 -0.23382
						CHANNELS 3 Zrotation Yrotation Xrotation
						JOINT RightForeArm
						{
							OFFSET -5.54967 -0.01834 0.03348
							CHANNELS 3 Zrotation Yrotation Xrotation
							JOINT RightHand
							{
								OFFSET -3.69401 -0.00000 0.00000
								CHANNELS 3 Zrotation Yrotation Xrotation
								JOINT RightFingerBase
								{
									OFFSET 0 0 0
									CHANNELS 3 Zrotation Yrotation Xrotation
									JOINT RightHandIndex1
									{
										OFFSET -0.63811 -0.00000 0.00000
										CHANNELS 3 Zrotation Yrotation Xrotation
										End Site
										{
											OFFSET -0.51446 -0.00000 0.00000
										}
									}
								}
								JOINT RThumb
								{
									OFFSET 0 0 0
									CHANNELS 3 Zrotation Yrotation Xrotation
									End Site
									{
										OFFSET -0.52232 -0.00000 0.52232
									}
								}
							}
						}
					}
				}
			}
		}
	}
}
MOTION
Frames: 9
Frame Time: .0083333
7.5391 18.3529 -9.9447 4.5140 -3.6158 0.9324 0.0000 0.0000 0.0000 -19.3900 -6.0249 -6.3201 0.8135 5.7555 16.0766 0.3023 1.0685 -10.8299 0.0119 -0.7044 -1.9357 0.0000 0.0000 0.0000 15.8898 7.5073 -3.3027 -1.2144 -6.9906 19.6874 -0.3833 -10.2674 -19.5618 -0.1115 -2.1531 5.9290 -1.8323 0.4417 -2.3829 -2.0445 0.6995 1.1287 -1.0407 0.3362 2.4990 -1.9513 -4.2191 -8.9456 13.1817 -10.7549 35.5738 4.1878 -3.3255 14.7617 -0.0000 0.0000 0.0000 -89.8009 0.4566 -3.0083 12.1534 -20.0342 -2.1545 -0.0000 -0.0000 25.6133 16.1810 28.2049 7.8089 -7.1250 0.0000 -0.0000 -16.1945 58.4201 -5.4066 -0.0000 0.0000 0.0000 89.7211 -3.7710 2.2045 -11.8062 19.5133 -2.0371 0.0000 0.0000 29.4070 -27.5814 23.2508 -11.6517 7.1250 -0.0000 -0.0000 0.9508 -4.1215 0.8802
7.5386 18.3533 -9.9457 4.5491 -3.6515 0.8971 0.0000 0.0000 0.0000 -19.4355 -6.1625 -6.1975 0.8074 5.7344 16.0157 0.2884 1.5985 -10.8569 0.0110 -0.6759 -1.8575 0.0000 0.0000 0.0000 15.8682 7.5896 -3.2546 -1.2174 -6.9987 19.7116 -0.3795 -10.3189 -19.5752 -0.1111 -2.1491 5.9178 -1.9173 0.4199 -2.3361 -2.0325 0.6704 1.0923 -0.9824 0.3205 2.4340 -1.8050 -4.1593 -8.9374 13.0134 -10.6405 35.5973 4.1074 -3.2760 14.7334 0.0000 -0.0000 0.0000 -89.8577 0.4664 -2.7818 12.3301 -20.2979 -2.2155 -0.0000 -0.0000 25.4299 15.7804 28.5410 7.6898 -7.1250 0.0000 -0.0000 -16.8336 58.6545 -5.7231 0.0000 -0.0000 0.0000 89.7611 -3.8786 2.6026 -11.8574 19.5904 -2.0542 0.0000 0.0000 29.0094 -27.5937 22.8608 -11.4776 7.1250 -0.0000 -0.0000 0.8902 -4.5410 0.8171
7.5393 18.3545 -9.9490 4.5043 -3.6262 0.9020 0.0000 0.0000 0.0000 -19.3810 -6.1708 -6.1664 0.7971 5.6986 15.9122 0.2690 1.9747 -10.7254 0.0125 -0.7220 -1.9841 0.0000 0.0000 0.0000 15.9233 7.5982 -3.3076 -1.2246 -7.0186 19.7705 -0.3659 -10.3996 -19.5137 -0.1078 -2.1169 5.8288 -1.9175 0.3920 -2.3778 -2.0060 0.6344 1.1076 -0.9563 0.3021 2.4727 -1.7950 -4.1508 -8.9215 13.0017 -10.6087 35.4980 4.0994 -3.2672 14.6758 -0.0000 -0.0000 0.0000 -89.9379 0.2786 -2.7621 12.4228 -20.4357 -2.2477 -0.0000 -0.0000 25.4157 15.3036 28.6255 7.4686 -7.1250 0.0000 -0.0000 -17.3912 58.6292 -5.9093 -0.0000 -0.0000 0.0000 89.8590 -3.9650 2.8186 -11.9983 19.8021 -2.1017 0.0000 0.0000 28.9374 -27.6102 22.3870 -11.2656 7.1250 -0.0000 -0.0000 0.8166 -5.0510 0.7416
7.5399 18.3515 -9.9497 4.4423 -3.6386 0.9642 0.0000 0.0000 0.0000 -19.2927 -6.0229 -6.2466 0.7845 5.6545 15.7852 0.2862 1.3657 -10.6978 0.0064 -0.5177 -1.4225 0.0000 0.0000 0.0000 15.9780 7.6477 -3.4268 -1.2358 -7.0495 19.8620 -0.3638 -10.4040 -19.4950 -0.1143 -2.1795 6.0020 -1.9341 0.4062 -2.5671 -1.9491 0.6606 1.1625 -0.8860 0.3134 2.6350 -1.9716 -4.1901 -8.9502 13.2096 -10.6763 35.3320 4.2004 -3.3004 14.6390 -0.0000 -0.0000 0.0000 -89.9916 -0.0346 -2.4027 12.5281 -20.5918 -2.2846 -0.0000 -0.0000 25.6257 14.7660 29.0061 7.2834 -7.1250 0.0000 -0.0000 -18.2136 58.8716 -6.3072 -0.0000 -0.0000 0.0000 89.8900 -3.9053 2.7499 -12.0415 19.8669 -2.1164 0.0000 0.0000 29.0463 -27.5856 22.3969 -11.2587 7.1250 -0.0000 -0.0000 0.8332 -5.0453 0.7568
7.5393 18.3492 -9.9492 4.6316 -3.7863 1.0032 0.0000 0.0000 0.0000 -19.4905 -6.1099 -6.1998 0.7739 5.6171 15.6773 0.3090 1.0140 -10.9185 0.0002 -0.0796 -0.2187 0.0000 0.0000 0.0000 15.7396 7.7366 -3.5411 -1.2474 -7.0813 19.9565 -0.3768 -10.2875 -19.5118 -0.0993 -2.0321 5.5944 -2.2306 0.4999 -2.7156 -1.9748 0.8041 1.2117 -0.7382 0.3789 2.7662 -2.0704 -4.2976 -9.0335 13.3885 -10.8627 35.2034 4.2575 -3.3736 14.6424 0.0000 0.0000 0.0000 -90.0122 -0.3185 -1.8404 12.6438 -20.7631 -2.3255 -0.0000 -0.0000 25.8309 15.2215 29.2837 7.5811 -7.1250 0.0000 -0.0000 -17.9260 59.2384 -6.3620 0.0000 0.0000 0.0000 89.9416 -3.7536 2.6137 -11.9856 19.7831 -2.0974 0.0000 0.0000 28.9600 -27.6839 22.4843 -11.3454 7.1250 -0.0000 -0.0000 0.7837 -4.9305 0.7135
7.5382 18.3529 -9.9509 4.8889 -3.8823 0.9701 0.0000 0.0000 0.0000 -19.7911 -6.1642 -6.0544 0.7630 5.5783 15.5655 0.3032 1.2189 -10.9178 0.0012 -0.2218 -0.6094 0.0000 0.0000 0.0000 15.4516 7.8496 -3.5556 -1.2586 -7.1119 20.0474 -0.3948 -10.2054 -19.6204 -0.0895 -1.9294 5.3107 -2.5833 0.5407 -2.6617 -2.0015 0.8710 1.2282 -0.5654 0.4062 2.7483 -1.9402 -4.3578 -9.2632 13.1952 -10.9296 35.2458 4.1383 -3.3955 14.7000 0.0000 0.0000 0.0000 -90.0717 -0.5438 -1.5291 12.6066 -20.7081 -2.3123 -0.0000 -0.0000 25.4934 16.3220 28.4709 7.9471 -7.1250 0.0000 -0.0000 -16.2162 58.7081 -5.5269 0.0000 0.0000 0.0000 89.9460 -3.7533 2.8937 -12.0651 19.9022 -2.1244 0.0000 0.0000 28.6289 -27.7661 22.2340 -11.2667 7.1250 -0.0000 -0.0000 0.6993 -5.1854 0.6333
7.5377 18.3551 -9.9518 4.8935 -3.8917 0.9021 0.0000 0.0000 0.0000 -19.8066 -5.9993 -5.9763 0.7559 5.5527 15.4920 0.2942 1.1874 -10.7485 0.0024 -0.3171 -0.8711 0.0000 0.0000 0.0000 15.4672 7.9189 -3.4830 -1.2648 -7.1288 20.0975 -0.4111 -10.1433 -19.7297 -0.1034 -2.0738 5.7097 -2.6553 0.5026 -2.5306 -1.9362 0.8148 1.2030 -0.4621 0.3773 2.6470 -1.9003 -4.3314 -9.4094 12.9953 -10.8579 35.3966 4.0625 -3.3708 14.7770 -0.0000 -0.0000 0.0000 -90.1417 -0.7529 -1.5818 12.5766 -20.6637 -2.3017 -0.0000 -0.0000 25.7318 15.3379 28.0597 7.3516 -7.1250 0.0000 -0.0000 -16.9863 58.0948 -5.5469 -0.0000 -0.0000 0.0000 89.8405 -3.8252 3.3417 -12.1657 20.0526 -2.1588 0.0000 0.0000 28.3672 -27.4138 22.1690 -11.0734 7.1250 -0.0000 -0.0000 0.9103 -5.3270 0.8219
7.5371 18.3527 -9.9525 4.7956 -3.9426 0.9307 0.0000 0.0000 0.0000 -19.6641 -6.0117 -6.0580 0.7587 5.5628 15.5210 0.3015 1.1030 -10.8327 0.0005 0.1448 0.3979 0.0000 0.0000 0.0000 15.5697 7.8956 -3.5275 -1.2639 -7.1264 20.0903 -0.4125 -10.0608 -19.6592 -0.1193 -2.2268 6.1330 -2.6096 0.4676 -2.5242 -1.8495 0.7616 1.1221 -0.4012 0.3520 2.5598 -2.0153 -4.2856 -9.4290 12.9736 -10.7871 35.5803 4.0961 -3.3512 14.8661 -0.0000 0.0000 0.0000 -90.1917 -0.9008 -1.4830 12.5637 -20.6447 -2.2972 -0.0000 -0.0000 26.2130 13.7409 28.7699 6.7123 -7.1250 0.0000 -0.0000 -19.1213 58.4199 -6.4270 -0.0000 0.0000 0.0000 89.7636 -3.8435 3.5598 -12.1817 20.0766 -2.1643 0.0000 0.0000 28.4262 -26.7626 21.8683 -10.6388 7.1250 -0.0000 -0.0000 1.2790 -5.7807 1.1440
7.5379 18.3518 -9.9524 4.6695 -3.9559 0.9582 0.0000 0.0000 0.0000 -19.5018 -5.9996 -6.1484 0.7614 5.5724 15.5487 0.3121 0.9811 -10.9556 0.0344 1.1964 3.2894 0.0000 0.0000 0.0000 15.6959 7.8203 -3.5819 -1.2643 -7.1274 20.0933 -0.4046 -10.0710 -19.5843 -0.1052 -2.0919 5.7596 -2.5294 0.4486 -2.6285 -1.7733 0.7366 1.1562 -0.3680 0.3392 2.6538 -2.0374 -4.2752 -9.4601 12.9696 -10.7554 35.5176 4.0990 -3.3421 14.8396 -0.0000 -0.0000 0.0000 -90.2605 -1.1393 -1.0598 12.4540 -20.4819 -2.2586 -0.0000 -0.0000 25.4778 14.4535 28.9182 7.1046 -7.1250 0.0000 -0.0000 -18.4805 58.7182 -6.3351 -0.0000 -0.0000 0.0000 89.7892 -3.7540 3.7079 -12.2421 20.1667 -2.1850 0.0000 0.0000 28.1485 -27.0309 20.9268 -10.3278 7.1250 -0.0000 -0.0000 0.9947 -6.7491 0.8710
